<svg xmlns="http://www.w3.org/2000/svg" id="isotipo-ori" viewBox="0 0 292.65 299.73"><style>@keyframes guino-ori{0%,23.3%,25.6%,26%,28.3%,70.3%,72.6%,73%,75.3%{clip-path:ellipse(100% 100% at 50% 50%)}24.6%,27.3%,71.6%,74.3%{clip-path:ellipse(100% 0 at 50% 50%)}}@keyframes anillo-ori{1%,14.6%{transform:translate(0,0)}4.33%,6%{transform:translate(-9px,-9px)}11%,9.3%{transform:translate(-9px,9px)}}@keyframes punto-ori{1%,14.66%{transform:translate(0,0)}4.33%,6%{transform:translate(-39px,-39px)}11%,9.33%{transform:translate(-39px,19px)}}@keyframes rotationgradient-ori{0%,18.33%{transform:rotate(0deg)}6%{transform:rotate(90deg)}11%{transform:rotate(-90deg)}}.gradiente-ori1{fill:url(#Degradado-ori1)}.gradiente-ori2{fill:url(#Degradado-ori2)}.gradiente-ori3{fill:url(#Degradado-ori3)}.gradiente-ori4{fill:url(#Degradado-ori4)}.gradiente-ori5{fill:url(#Degradado-ori5)}.gradiente-ori6{fill:url(#Degradado-ori6)}.circulo-ori{fill:#000f33}.g-ori{fill:#fff;animation:guino-ori 10s cubic-bezier(.2,1.06,.61,.97) infinite}.anillo-ori{fill:#fff;animation:anillo-ori 10s cubic-bezier(.2,1.06,.61,.97) infinite}.punto-ori{fill:#fff;animation:punto-ori 10s cubic-bezier(.2,1.06,.61,.97) infinite}.gradiente-ori{transform-origin:50% 50%;animation:rotationgradient-ori 10s cubic-bezier(.2,1.06,.61,.97) infinite}</style><defs><linearGradient id="Degradado-ori1" x1="144.22" x2="208.95" y1="78.69" y2="116.07" gradientUnits="userSpaceOnUse"><stop offset="0" stop-color="#f3b444"/><stop offset="1" stop-color="#f15480"/></linearGradient><linearGradient id="Degradado-ori2" x1="207.95" x2="207.95" y1="187.23" y2="115.72" gradientUnits="userSpaceOnUse"><stop offset="0" stop-color="#b157ce"/><stop offset="1" stop-color="#f15480"/></linearGradient><linearGradient id="Degradado-ori3" x1="145.74" x2="209.57" y1="220.16" y2="183.31" gradientUnits="userSpaceOnUse"><stop offset="0" stop-color="#5da5fb"/><stop offset="1" stop-color="#b157ce"/></linearGradient><linearGradient id="Degradado-ori4" x1="86.21" x2="148.52" y1="182.71" y2="218.69" gradientUnits="userSpaceOnUse"><stop offset="0" stop-color="#74e6a7"/><stop offset="1" stop-color="#5da5fb"/></linearGradient><linearGradient id="Degradado-ori5" x1="88.86" x2="88.86" y1="112.94" y2="184.53" gradientUnits="userSpaceOnUse"><stop offset="0" stop-color="#c8ed5c"/><stop offset="1" stop-color="#74e6a7"/></linearGradient><linearGradient id="Degradado-ori6" x1="89.55" x2="149.35" y1="115.09" y2="80.56" gradientUnits="userSpaceOnUse"><stop offset="0" stop-color="#c8ed5c"/><stop offset="1" stop-color="#f3b444"/></linearGradient><filter id="filter-ori" width="200%" height="200%" x="-50%" y="-50%" filterUnits="objectBoundingBox"><feOffset dx="0" dy="0" in="SourceAlpha" result="shadowOffsetOuter1"/><feGaussianBlur in="shadowOffsetOuter1" result="shadowBlurOuter1" stdDeviation="10"/><feColorMatrix in="shadowBlurOuter1" result="shadowMatrixOuter1" type="matrix" values="0 0 0 0 0 0 0 0 0 0 0 0 0 0 0 0 0 0 1 0"/><feMerge><feMergeNode in="shadowMatrixOuter1"/><feMergeNode in="SourceGraphic"/></feMerge></filter></defs><g class="sombra-ori" filter="url(#filter-ori)" style="fill:#000f33;opacity:.8"><circle cx="146.33" cy="149.87" r="118"/></g><g class="gradiente-ori"><path d="M250.46,92.14A119,119,0,0,0,146.33,30.78V149.87Z" class="gradiente-ori1"/><path d="M248.38,211.19a119,119,0,0,0,1.08-120.87L146.33,149.87Z" class="gradiente-ori2"/><path d="M144.25,268.91a119,119,0,0,0,105.21-59.5L146.33,149.87Z" class="gradiente-ori3"/><path d="M42.19,207.59A119,119,0,0,0,146.33,269V149.87Z" class="gradiente-ori4"/><path d="M44.27,88.54a119,119,0,0,0-1.08,120.87l103.14-59.54Z" class="gradiente-ori5"/><path d="M148.4,30.82A119,119,0,0,0,43.19,90.32l103.14,59.55Z" class="gradiente-ori6"/></g><g class="circulo-ori"><circle cx="146.33" cy="149.87" r="94.02"/></g><g class="g-ori"><path d="M206.54,148.45a11.67,11.67,0,0,0-11.45,9.35,47.5,47.5,0,1,1-30.93-54.2,11.33,11.33,0,0,0,13.6-4.8l.5-.85a11.23,11.23,0,0,0-6-16.28A70.87,70.87,0,1,0,218,162.26,11.65,11.65,0,0,0,206.54,148.45Z" class="anillo-ori"/><path d="M165.65,141.39a15.25,15.25,0,1,0,15.25,15.24A15.24,15.24,0,0,0,165.65,141.39Z" class="punto-ori"/></g></svg>